# AST/ASF file generated using VICON BodyLanguage
# -----------------------------------------------
:version 1.10
:name VICON
:units
  mass 1.0
  length 0.45
  angle deg
:documentation
   .ast/.asf automatically generated from VICON data using
   VICON BodyBuilder and BodyLanguage model FoxedUp or BRILLIANT.MOD
:root
   order TX TY TZ RX RY RZ
   axis XYZ
   position 0 0 0  
   orientation 0 0 0 
:bonedata
  begin
     id 1 
     name lhipjoint
     direction 0.822369 -0.411937 0.392449 
     length 3.8167 
     axis 0 0 0  XYZ
  end
  begin
     id 2 
     name lfemur
     direction 0.34202 -0.939693 0  
     length 6.16791  
     axis 0 0 20  XYZ
    dof rx ry rz
    limits (-160.0 20.0)
           (-70.0 70.0)
           (-60.0 70.0)
  end
  begin
     id 3 
     name ltibia
     direction 0.34202 -0.939693 0   
     length 7.07101   
     axis 0 0 20   XYZ
    dof rx
    limits (-10.0 170.0)
  end
  begin
     id 4 
     name lfoot
     direction 0.028254 -0.0776273 0.996582   
     length 1.66799   
     axis -90 7.62852e-016 20   XYZ
    dof rx rz
    limits (-45.0 90.0)
           (-70.0 20.0)
  end
  begin
     id 5 
     name ltoes
     direction 1.53483e-011 -4.21688e-011 1   
     length 0.851674   
     axis -90 7.62852e-016 20   XYZ
    dof rx
    limits (-90.0 20.0)
  end
  begin
     id 6 
     name rhipjoint
     direction -0.822466 -0.411836 0.392353   
     length 3.81764  
     axis 0 0 0  XYZ 
  end
  begin
     id 7 
     name rfemur
     direction -0.34202 -0.939693 0   
     length 6.28636   
     axis 0 0 -20   XYZ
    dof rx ry rz
    limits (-160.0 20.0)
           (-70.0 70.0)
           (-70.0 60.0)
  end
  begin
     id 8 
     name rtibia
     direction -0.34202 -0.939693 0   
     length 6.85621   
     axis 0 0 -20   XYZ
    dof rx
    limits (-10.0 170.0)
 end
 begin
     id 9 
     name rfoot
     direction -0.0553036 -0.151945 0.98684   
     length 1.57293  
     axis -90 -7.62852e-016 -20   XYZ
    dof rx rz
    limits (-45.0 90.0)
           (-20.0 70.0)
  end
  begin
     id 10 
     name rtoes
     direction -1.53592e-011 -4.21964e-011 1   
     length 0.802812   
     axis -90 -7.62852e-016 -20   XYZ
    dof rx
    limits (-90.0 20.0)
  end
  begin
     id 11 
     name lowerback
     direction 0.00654913 0.996475 -0.0836396   
     length 1.97212   
     axis 0 0 0   XYZ
    dof rx ry rz
    limits (-20.0 45.0)
           (-30.0 30.0)
           (-30.0 30.0)
  end
  begin
     id 12 
     name upperback
     direction 0.0111875 0.994527 0.103877   
     length 1.89704   
     axis 0 0 0   XYZ
    dof rx ry rz
    limits (-20.0 45.0)
           (-30.0 30.0)
           (-30.0 30.0)
  end
  begin
     id 13 
     name thorax
     direction 0.00473652 0.989004 0.147814   
     length 1.94516   
     axis 0 0 0   XYZ
    dof rx ry rz
    limits (-20.0 45.0)
           (-30.0 30.0)
           (-30.0 30.0)
  end
  begin
     id 14 
     name lowerneck
     direction -0.00925808 0.999011 0.0434791   
     length 1.81771   
     axis 0 0 0   XYZ
    dof rx ry rz
    limits (-20.0 45.0)
           (-30.0 30.0)
           (-30.0 30.0)
  end
  begin
     id 15 
     name upperneck
     direction 0.00451595 0.964412 -0.264365   
     length 1.80434   
     axis 0 0 0   XYZ
    dof rx ry rz
    limits (-20.0 45.0)
           (-30.0 30.0)
           (-30.0 30.0)
  end
  begin
     id 16
     name head
     direction -0.00110849 0.995756 -0.0920241  
     length 1.84006  
     axis 0 0 0   XYZ
    dof rx ry rz
    limits (-20.0 45.0)
           (-30.0 30.0)
           (-30.0 30.0)
  end
  begin
     id 17 
     name lclavicle
     direction 0.921253 0.385213 0.0538957  
     length 3.67415  
     axis 0 0 0   XYZ
    dof ry rz
    limits (-20.0 10.0)
           (0.0 20.0)
  end
  begin
     id 18 
     name lhumerus
     direction 1 -4.48961e-011 6.73441e-028   
     length 4.32712   
     axis 180 -30 -90   XYZ
    dof rx ry rz
    limits (-60.0 90.0)
           (-90.0 90.0)
           (-90.0 90.0)
  end
  begin
     id 19
     name lradius
     direction 1 -4.48985e-011 -9.53507e-028   
     length 3.28587   
     axis 180 -30 -90   XYZ
    dof rx
    limits (-10.0 170.0)
  end
  begin
     id 20
     name lwrist
     direction 1 -4.48951e-011 -4.67472e-027   
     length 1.64293   
     axis 1.65735e-015 90 90   XYZ
    dof ry
    limits (-180.0 0.0)
 end
  begin
     id 21 
     name lhand
     direction 1 -4.48946e-011 -9.34945e-027   
     length 0.433158   
     axis 5.96574e-015 90 90   XYZ
    dof rx rz
    limits (-90.0 90.0)
           (-45.0 45.0)
  end
  begin
     id 22 
     name lfingers
     direction 1 -4.48882e-011 -1.86989e-026   
     length 0.349224   
     axis 1.19315e-014 90 90   XYZ
    dof rx
    limits (0.0 90.0)
  end
  begin
     id 23
     name lthumb
     direction 0.707107 -6.3493e-011 0.707107   
     length 0.501417   
     axis -90 45 2.85299e-015   XYZ
    dof rx rz
    limits (-45.0 45.0)
           (-45.0 45.0)
  end
  begin
     id 24 
     name rclavicle
     direction -0.884378 0.46502 -0.0403866   
     length 3.50218  
     axis 0 0 0   XYZ 
    dof ry rz
    limits (-10.0 20.0)
           (-20.0 0.0)
  end
  begin
     id 25 
     name rhumerus
     direction -1 -4.48964e-011 1.58188e-027  
     length 4.29104   
     axis 180 30 90   XYZ
    dof rx ry rz
    limits (-90.0 60.0)
           (-90.0 90.0)
           (-90.0 90.0)
  end
  begin
     id 26 
     name rradius
     direction -1 -4.48978e-011 -1.9722e-027   
     length 3.2272   
     axis 180 30 90   XYZ
    dof rx
    limits (-10.0 170.0)
  end
  begin
     id 27 
     name rwrist
     direction -1 -4.48969e-011 -4.67472e-027   
     length 1.6136   
     axis 1.65735e-015 -90 -90   XYZ
    dof ry
    limits (-180.0 0.0)
  end
  begin
     id 28
     name rhand
     direction -1 -4.48846e-011 -9.34945e-027   
     length 0.543623   
     axis 5.96574e-015 -90 -90   XYZ
    dof rx rz
    limits (-90.0 90.0)
           (-45.0 45.0)
  end
  begin
     id 29
     name rfingers
     direction -1 -4.49074e-011 -1.86989e-026   
     length 0.438283   
     axis 1.19315e-014 -90 -90   XYZ
    dof rx
    limits (0.0 90.0)
  end
  begin
     id 30
     name rthumb
     direction -0.707107 -6.34834e-011 0.707107   
     length 0.629289   
     axis -90 -45 -2.85299e-015   XYZ
    dof rx rz
    limits (-45.0 45.0)
           (-45.0 45.0)
  end
:hierarchy
  begin
    root lhipjoint rhipjoint lowerback
    lhipjoint lfemur
    lfemur ltibia
    ltibia lfoot
    lfoot ltoes
    rhipjoint rfemur
    rfemur rtibia
    rtibia rfoot
    rfoot rtoes
    lowerback upperback
    upperback thorax
    thorax lowerneck lclavicle rclavicle
    lowerneck upperneck
    upperneck head
    lclavicle lhumerus
    lhumerus lradius
    lradius lwrist
    lwrist lhand lthumb
    lhand lfingers
    rclavicle rhumerus
    rhumerus rradius
    rradius rwrist
    rwrist rhand rthumb
    rhand rfingers
  end

#!OML:ASF H:\GeneralSubjects\Female5\Project 1\Capture day 1\Session 1\Female5.ASF
:FULLY-SPECIFIED
:DEGREES
1
root -31.9441 15.684 3.3038 -171.894 0.351753 -178.297
lowerback 5.3813 1.06288 4.85675
upperback -10.0172 3.27037 1.97841
thorax -13.9027 1.57712 -1.18839
lowerneck -15.6953 -3.63405 -6.57217
upperneck 32.7062 -8.69571 6.86263
head 14.4681 -4.68341 2.18745
rclavicle -1.45113e-014 1.27222e-014
rhumerus -50.333 22.0683 -88.176
rradius 34.7382
rwrist -19.0023
rhand -16.6696 -23.64
rfingers 7.12502
rthumb 9.55414 -53.4034
lclavicle -1.45113e-014 1.27222e-014
lhumerus -46.4196 8.09456 76.0516
lradius 32.3965
lwrist -9.36953
lhand -22.7676 32.0281
lfingers 7.12502
lthumb 3.66752 61.9763
rfemur 0 0 0
rtibia 0
rfoot 0 0
rtoes 0
lfemur -22.7782 -15.0836 -6.19426
ltibia 18.8188
lfoot -30.0656 23.1469
ltoes -62.3316
2
root -31.9475 15.6835 3.30371 -171.901 0.340411 -178.337
lowerback 5.40681 1.07826 4.7752
upperback -10.0225 3.28008 1.96203
thorax -13.9263 1.5878 -1.16384
lowerneck -15.6399 -3.60911 -6.64043
upperneck 32.6776 -8.59285 6.78614
head 14.4314 -4.6549 2.18888
rclavicle -4.19436e-014 -6.75868e-014
rhumerus -50.5036 22.0784 -88.4866
rradius 35.1021
rwrist -18.8929
rhand -16.8112 -23.7011
rfingers 7.12502
rthumb 9.41754 -53.4707
lclavicle -4.19436e-014 -6.75868e-014
lhumerus -46.3682 7.93554 76.3165
lradius 32.657
lwrist -8.94344
lhand -23.0701 31.8658
lfingers 7.12502
lthumb 3.37539 61.8188
rfemur 0 0 0
rtibia 0
rfoot 0 0
rtoes 0
lfemur -22.7201 -15.0508 -6.2628
ltibia 18.6531
lfoot -29.8583 23.194
ltoes -62.2728
3
root -31.9539 15.6847 3.30404 -171.895 0.35578 -178.466
lowerback 5.3952 1.09388 4.61491
upperback -10.0101 3.26956 1.92858
thorax -13.9071 1.59543 -1.10872
lowerneck -15.5859 -3.57911 -6.51594
upperneck 32.6195 -8.42782 6.44945
head 14.3511 -4.60397 2.06289
rclavicle -8.15017e-015 1.59028e-014
rhumerus -50.5373 22.372 -88.8436
rradius 35.506
rwrist -19.2114
rhand -16.8168 -23.812
rfingers 7.12502
rthumb 9.41208 -53.5818
lclavicle -8.15017e-015 1.59028e-014
lhumerus -46.3078 7.64474 76.6397
lradius 32.962
lwrist -8.52369
lhand -23.128 31.9105
lfingers 7.12502
lthumb 3.31948 61.8644
rfemur 0 0 0
rtibia 0
rfoot 0 0
rtoes 0
lfemur -22.6732 -15.177 -6.42492
ltibia 18.5718
lfoot -30.1021 22.898
ltoes -61.8413
4
root -31.9603 15.6862 3.30566 -171.887 0.384687 -178.54
lowerback 5.37593 1.11055 4.49473
upperback -9.97779 3.26574 1.92292
thorax -13.8595 1.60431 -1.04556
lowerneck -15.9446 -3.62688 -6.1957
upperneck 32.8703 -8.38495 5.87209
head 14.4924 -4.60692 1.77231
rclavicle 1.82882e-014 -9.54166e-015
rhumerus -50.5083 22.7003 -89.0303
rradius 35.8893
rwrist -19.4022
rhand -16.1994 -23.8782
rfingers 7.12502
rthumb 10.0078 -53.6202
lclavicle 1.82882e-014 -9.54166e-015
lhumerus -46.2121 7.53912 76.8979
lradius 33.1578
lwrist -8.32271
lhand -23.4482 31.9449
lfingers 7.12502
lthumb 3.01027 61.9034
rfemur 0 0 0
rtibia 0
rfoot 0 0
rtoes 0
lfemur -22.6413 -15.3801 -6.48079
ltibia 18.547
lfoot -30.8397 22.2286
ltoes -61.094
5
root -31.9653 15.6845 3.30884 -171.876 0.372469 -178.543
lowerback 5.42769 1.11186 4.45354
upperback -9.99439 3.26688 1.91535
thorax -13.9133 1.6073 -1.03375
lowerneck -16.0147 -3.56611 -5.91851
upperneck 32.9344 -8.21247 5.4553
head 14.485 -4.54651 1.58519
rclavicle -2.98177e-015 3.97569e-015
rhumerus -50.749 23.2187 -89.3017
rradius 36.438
rwrist -19.8748
rhand -15.9991 -23.796
rfingers 7.12502
rthumb 10.2011 -53.5286
lclavicle -2.98177e-015 3.97569e-015
lhumerus -46.1652 7.6766 76.9448
lradius 33.2812
lwrist -8.40138
lhand -23.4876 31.9334
lfingers 7.12502
lthumb 2.97218 61.8924
rfemur 0 0 0
rtibia 0
rfoot 0 0
rtoes 0
lfemur -22.6465 -15.4909 -6.45464
ltibia 18.5299
lfoot -31.5276 21.5538
ltoes -60.3878
6
root -31.9684 15.6825 3.3112 -171.838 0.32709 -178.524
lowerback 5.4845 1.11221 4.38905
upperback -10.0617 3.27912 1.91631
thorax -14.0329 1.62102 -1.00367
lowerneck -15.8803 -3.51754 -5.90528
upperneck 32.8857 -8.13726 5.43787
head 14.4248 -4.51891 1.59299
rclavicle -6.26172e-015 -5.40694e-014
rhumerus -50.8324 22.9782 -89.3935
rradius 36.6117
rwrist -19.8181
rhand -16.5988 -23.5861
rfingers 7.12502
rthumb 9.62247 -53.3464
lclavicle -6.26172e-015 -5.40694e-014
lhumerus -46.196 7.65878 77.0113
lradius 33.4987
lwrist -8.37264
lhand -23.0685 31.9696
lfingers 7.12502
lthumb 3.3769 61.9226
rfemur 0 0 0
rtibia 0
rfoot 0 0
rtoes 0
lfemur -22.7051 -15.4562 -6.4312
ltibia 18.5096
lfoot -31.4891 21.5729
ltoes -59.9917
7
root -31.9694 15.6821 3.31168 -171.818 0.277732 -178.466
lowerback 5.44952 1.10277 4.31415
upperback -10.0699 3.26412 1.95297
thorax -14.0267 1.62665 -0.918381
lowerneck -15.8266 -3.4815 -6.07429
upperneck 32.8348 -8.10853 5.66774
head 14.4083 -4.49844 1.72238
rclavicle 1.58034e-014 8.34896e-014
rhumerus -50.7927 23.1039 -89.4417
rradius 36.6644
rwrist -19.8835
rhand -16.6802 -23.3776
rfingers 7.12502
rthumb 9.5439 -53.1415
lclavicle 1.58034e-014 8.34896e-014
lhumerus -46.191 7.45969 77.2044
lradius 33.7323
lwrist -8.14433
lhand -22.8458 31.9632
lfingers 7.12502
lthumb 3.592 61.9127
rfemur 0 0 0
rtibia 0
rfoot 0 0
rtoes 0
lfemur -22.7357 -15.4289 -6.35073
ltibia 18.4663
lfoot -31.021 22.1168
ltoes -60.0687
8
root -31.974 15.6831 3.31313 -171.825 0.243465 -178.527
lowerback 5.36045 1.0786 4.18225
upperback -10.0099 3.19306 1.95015
thorax -13.9044 1.60568 -0.830563
lowerneck -15.8435 -3.42037 -6.1514
upperneck 32.7608 -8.01171 5.80172
head 14.3817 -4.4422 1.80858
rclavicle 1.19271e-015 2.38542e-014
rhumerus -50.7443 23.3331 -89.46
rradius 36.966
rwrist -19.7643
rhand -16.2658 -23.476
rfingers 7.12502
rthumb 9.94376 -53.2212
lclavicle 1.19271e-015 2.38542e-014
lhumerus -46.0417 7.5142 77.2779
lradius 33.7552
lwrist -8.18294
lhand -22.9611 31.8968
lfingers 7.12502
lthumb 3.48068 61.8481
rfemur 0 0 0
rtibia 0
rfoot 0 0
rtoes 0
lfemur -22.7468 -15.5434 -6.44338
ltibia 18.4693
lfoot -31.0298 22.3188
ltoes -60.4508
9
root -31.9819 15.6845 3.31452 -171.858 0.217993 -178.659
lowerback 5.32795 1.06481 4.02324
upperback -9.95613 3.13398 1.93235
thorax -13.8249 1.59005 -0.748549
lowerneck -15.9182 -3.3766 -6.24949
upperneck 32.7901 -7.94249 5.89642
head 14.4157 -4.40882 1.87525
rclavicle 2.68359e-015 9.54166e-015
rhumerus -50.7758 23.3982 -89.3968
rradius 37.4062
rwrist -19.567
rhand -16.0158 -23.8404
rfingers 7.12502
rthumb 10.1849 -53.5739
lclavicle 2.68359e-015 9.54166e-015
lhumerus -45.8431 7.7411 77.2917
lradius 33.654
lwrist -8.38248
lhand -23.2428 31.7696
lfingers 7.12502
lthumb 3.20866 61.7252
rfemur 0 0 0
rtibia 0
rfoot 0 0
rtoes 0
lfemur -22.7772 -15.669 -6.65924
ltibia 18.6157
lfoot -31.4676 21.8505
ltoes -60.076
10
root -31.9882 15.6856 3.31355 -171.918 0.194499 -178.687
lowerback 5.32674 1.05981 3.9383
upperback -9.90873 3.10943 1.96376
thorax -13.7729 1.5876 -0.661195
lowerneck -16.0529 -3.36653 -6.40938
upperneck 32.9251 -7.93219 5.99718
head 14.5197 -4.41184 1.94237
rclavicle 5.86415e-015 3.89618e-014
rhumerus -50.7442 23.5343 -89.2791
rradius 37.5862
rwrist -19.5723
rhand -16.1319 -23.8748
rfingers 7.12502
rthumb 10.0729 -53.6137
lclavicle 5.86415e-015 3.89618e-014
lhumerus -45.699 7.87959 77.3695
lradius 33.5807
lwrist -8.51224
lhand -23.4422 31.5979
lfingers 7.12502
lthumb 3.01601 61.5563
rfemur 0 0 0
rtibia 0
rfoot 0 0
rtoes 0
lfemur -22.7545 -15.81 -6.73355
ltibia 18.7387
lfoot -31.7132 21.5215
ltoes -59.5687
11
root -31.9943 15.6858 3.31183 -171.959 0.182292 -178.681
lowerback 5.31119 1.05702 3.89912
upperback -9.88859 3.09797 1.98084
thorax -13.7417 1.58714 -0.617594
lowerneck -16.2382 -3.46135 -6.4244
upperneck 33.1259 -8.02432 5.79224
head 14.6512 -4.48076 1.8389
rclavicle 2.61402e-014 5.56597e-015
rhumerus -50.5246 23.3222 -89.1117
rradius 37.3776
rwrist -19.3035
rhand -16.4375 -23.588
rfingers 7.12502
rthumb 9.77806 -53.341
lclavicle 2.61402e-014 5.56597e-015
lhumerus -45.6773 7.75506 77.4916
lradius 33.6554
lwrist -8.36886
lhand -23.47 31.5349
lfingers 7.12502
lthumb 2.98917 61.4937
rfemur 0 0 0
rtibia 0
rfoot 0 0
rtoes 0
lfemur -22.7154 -15.9379 -6.76665
ltibia 18.7661
lfoot -31.6472 21.7759
ltoes -59.8612
12
root -32.0004 15.6836 3.31112 -171.95 0.177949 -178.685
lowerback 5.29694 1.05628 3.8544
upperback -9.9363 3.09868 1.95856
thorax -13.7902 1.59257 -0.618302
lowerneck -16.555 -3.75783 -6.15603
upperneck 33.4767 -8.30601 4.97333
head 14.8488 -4.67543 1.39275
rclavicle 4.17448e-015 3.4191e-014
rhumerus -50.4028 23.4022 -89.1094
rradius 37.1655
rwrist -19.3101
rhand -16.5926 -23.4167
rfingers 7.12502
rthumb 9.62843 -53.1767
lclavicle 4.17448e-015 3.4191e-014
lhumerus -45.7778 7.42595 77.6237
lradius 33.8146
lwrist -7.99327
lhand -23.5896 31.809
lfingers 7.12502
lthumb 2.87367 61.7694
rfemur 0 0 0
rtibia 0
rfoot 0 0
rtoes 0
lfemur -22.7648 -15.8124 -6.82055
ltibia 18.8156
lfoot -31.5415 21.9106
ltoes -60.1408
